<?xml  version="1.0" encoding="UTF-8"?>
<!DOCTYPE svg PUBLIC "-//W3C//DTD SVG 1.0//EN" "http://www.w3.org/TR/2001/REC-SVG-20010904/DTD/svg10.dtd" >
<svg xmlns="http://www.w3.org/2000/svg" >
<metadata>
<version>1.0</version>
<id><![CDATA[Proxima N W01 Cd Reg It]]></id>
<vendor>Monotype Imaging Inc.</vendor>
<credits>
<name>Fonts.com WebFonts</name>
<URL>http://webfonts.fonts.com</URL>
<role>Home of the Web fonts</role>
</credits>
<license>
<URL>http://webfonts.fonts.com/Legal</URL>
</license>
<copyright><![CDATA[Copyright (c) Mark Simonson, 2005. All rights reserved.]]></copyright>
<trademark><![CDATA[Proxima Nova is a trademark of Mark Simonson.]]></trademark>
<licensee>
<name></name>
</licensee>
</metadata>
<defs >
<font horiz-adv-x="426" id="8d39fd5c-1931-46c8-91b7-bd926a93c043">
<font-face font-family="" panose-1="2 0 5 6 3 0 0 2 0 4" ascent="741" descent="-259" units-per-em="1000" alphabetic="0">
</font-face>
<missing-glyph horiz-adv-x="0" />

<glyph unicode="&#xA;" />
<glyph unicode="&#xD;" horiz-adv-x="0" />
<glyph unicode=" " horiz-adv-x="215" />
<glyph unicode="!" horiz-adv-x="228" d="M71 185L163 667H252L130 185H71ZM65 -10Q44 -10 30 4T16 39Q16 63 33 80T75 97Q95 97 109 83T123 47Q123 23 106 7T65 -10Z"  />
<glyph unicode="&quot;" horiz-adv-x="340" d="M116 414Q122 470 126 515Q128 534 130 552T133 586T136 611T137 624Q139 647 153 662T189 677Q205 677 216 666T228 637Q228 631 226 624T223 614Q222 613 219 604T210 580T199 548T186 512L152 414H116ZM261 414Q267 470 271 515Q273 534 274 552T277 586T280 611T282 624Q284 647 297 662T333 677Q350 677 361 666T372 637Q372 631 371 624T367 614Q367 613 364 604T355 580T344 548T331 512L297 414H261Z"  />
<glyph unicode="#" horiz-adv-x="507" d="M150 0L242 182H151L60 0H1L93 182H5L30 233H119L220 434H131L155 484H245L337 667H396L304 484H395L486 667H545L453 484H540L517 434H428L325 233H417L392 182H300L209 0H150ZM369 434H279L177 233H266L369 434Z"  />
<glyph unicode="$" horiz-adv-x="468" d="M156 -7Q105 1 65 25T2 82L54 140Q74 111 104 91T172 62L227 313Q204 328 182 345T142 382T113 427T102 484Q102 524 118 559T161 620T226 662T308 678H309L329 768H388L366 671Q404 663 436 644T490 598L440 541Q406 586 350 600L299 372Q321 357 343 340T382 302T410 256T421 199Q421 158 407 121T366 54T301 7T214 -12L195 -100H136L156 -7ZM337 187Q337 216 321 237T278 278L230 60Q281 67 309 103T337 187ZM186 495Q186 468 204 447T248 406L293 606Q269 604 250 595T216 570T194 536T186 495Z"  />
<glyph unicode="%" horiz-adv-x="651" d="M74 0L571 667H619L121 0H74ZM441 -12Q383 -12 349 24T315 116Q315 159 328 196T364 260T416 302T477 317Q535 317 569 281T604 189Q604 145 591 109T554 45T502 3T441 -12ZM443 37Q463 37 481 48T514 79T538 125T547 184Q547 223 528 245T475 268Q455 268 437 257T404 226T380 179T371 121Q371 81 391 59T443 37ZM212 348Q154 348 120 384T86 476Q86 519 99 556T135 620T187 662T248 677Q306 677 340 641T374 549Q374 505 361 469T325 405T273 363T212 348ZM214 397Q233 397 252 408T285 439T309 485T318 544Q318 584 298 606T246 628Q226 628 208 617T175 586T151 539T142 481Q142 441 162 419T214 397Z"  />
<glyph unicode="&amp;" horiz-adv-x="520" d="M352 0Q344 12 337 25T322 53Q287 23 250 6T170 -12Q137 -12 109 -3T59 25T26 70T14 134Q14 182 28 219T66 284T120 334T184 374Q169 429 169 481Q169 521 182 556T217 619T268 661T329 677Q379 677 412 650T446 566Q446 524 430 493T389 437T331 393T264 354Q272 331 281 309T301 263Q312 234 322 211T344 165Q372 203 394 242T430 310L485 279Q461 234 434 189T374 106Q387 82 402 57T435 0H352ZM181 48Q210 48 238 64T293 106Q277 137 263 166T241 217Q230 244 220 268T202 316Q155 286 124 246T92 142Q92 97 118 73T181 48ZM240 476Q240 459 242 443T248 409Q275 424 298 439T340 473T368 513T379 563Q379 595 364 608T327 621Q311 621 296 610T268 579T248 533T240 476Z"  />
<glyph unicode="&apos;" horiz-adv-x="197" d="M116 414Q122 470 126 515Q128 534 130 552T133 586T136 611T137 624Q139 647 153 662T189 677Q205 677 216 666T228 637Q228 631 226 624T223 614Q222 613 219 604T210 580T199 548T186 512L152 414H116Z"  />
<glyph unicode="(" horiz-adv-x="229" d="M67 -199Q45 -145 34 -82T22 50Q22 227 85 386T261 685L302 654Q256 585 218 509T153 351T111 185T96 15Q96 -4 98 -28T103 -77T110 -128T119 -176L67 -199Z"  />
<glyph unicode=")" horiz-adv-x="229" d="M161 685Q182 631 193 568T205 436Q205 259 142 100T-34 -199L-74 -168Q-28 -99 9 -23T74 134T116 300T131 471Q131 490 130 514T125 563T118 614T109 662L161 685Z"  />
<glyph unicode="*" horiz-adv-x="321" d="M170 391L202 508L91 457L78 497L191 538L102 600L132 635L214 564L234 677H279L247 560L357 611L370 571L257 530L347 468L316 433L234 504L215 391H170Z"  />
<glyph unicode="+" horiz-adv-x="439" d="M262 312L221 128H166L206 312H44L55 363H218L257 540H312L273 363H436L424 312H262Z"  />
<glyph unicode="&#x2c;" horiz-adv-x="228" d="M125 40Q125 17 116 -6T91 -51T55 -90T12 -120L-18 -88Q9 -74 33 -52T65 -4Q64 -5 62 -5T57 -5Q40 -5 28 7T16 39Q16 63 33 80T74 97Q95 97 110 83T125 40Z"  />
<glyph unicode="-" horiz-adv-x="267" d="M22 210L36 274H243L230 210H22Z"  />
<glyph unicode="." horiz-adv-x="228" d="M65 -10Q44 -10 30 4T16 39Q16 63 33 80T75 97Q95 97 109 83T123 47Q123 23 106 7T65 -10Z"  />
<glyph unicode="/" horiz-adv-x="248" d="M-59 -20L289 687H348L-1 -20H-59Z"  />
<glyph unicode="0" horiz-adv-x="512" d="M222 -12Q141 -12 95 44T49 209Q49 260 58 314T83 421T124 519T180 601T249 656T329 677Q410 677 455 621T501 456Q501 405 492 351T467 244T426 146T370 64T302 9T222 -12ZM229 59Q259 59 284 79T331 132T370 208T398 296T416 385T422 465Q422 528 400 567T322 606Q292 606 266 586T219 533T180 458T152 370T134 281T128 200Q128 138 151 99T229 59Z"  />
<glyph unicode="1" horiz-adv-x="315" d="M112 0L236 562L109 452L72 502L268 667H338L191 0H112Z"  />
<glyph unicode="2" horiz-adv-x="489" d="M-1 0L16 80Q111 165 183 228T305 343T379 435T404 516Q404 558 375 582T299 606Q255 606 222 589T160 538L117 590Q152 630 200 653T304 677Q341 677 374 668T433 639T473 590T488 523Q488 474 464 426T393 325T279 210T127 71H391L376 0H-1Z"  />
<glyph unicode="3" horiz-adv-x="473" d="M203 -12Q168 -12 135 -3T75 23T27 66T-4 124L59 165Q76 113 115 86T203 59Q235 59 260 72T302 107T328 157T337 215Q337 260 307 283T226 307Q210 307 198 307T178 306L195 378Q198 378 206 378T225 377T246 377T263 377Q292 377 316 387T358 416T386 460T396 515Q396 557 366 581T284 606Q208 606 149 538L109 588Q141 626 189 651T293 677Q333 677 367 667T426 638T464 591T478 527Q478 491 465 459T430 402T379 361T319 339Q364 326 389 291T415 206Q415 163 400 124T356 54T288 6T203 -12Z"  />
<glyph unicode="4" horiz-adv-x="462" d="M233 0L270 171H6L23 246L353 667H459L364 241H437L422 171H349L312 0H233ZM360 579L96 241H285L360 579Z"  />
<glyph unicode="5" horiz-adv-x="491" d="M217 -12Q139 -12 92 23T20 121L84 162Q116 59 219 59Q249 59 275 75T320 117T351 177T363 248Q363 297 334 324T257 351Q223 351 196 338T141 300L88 326L164 667H504L489 597H228L178 371Q200 393 228 405T295 418Q326 418 354 407T402 376T434 325T446 256Q446 204 429 156T382 71T309 11T217 -12Z"  />
<glyph unicode="6" horiz-adv-x="492" d="M224 -12Q179 -12 146 3T90 46T57 112T46 199Q46 238 53 288T76 392T115 496T171 588T246 652T341 677Q398 677 440 650T503 575L447 525Q435 563 407 584T336 606Q296 606 265 583T211 522T171 439T144 349Q140 336 139 328Q151 344 167 360T204 389T248 409T295 417Q362 417 405 377T449 261Q449 213 433 165T388 77T317 13T224 -12ZM227 59Q259 59 285 78T329 125T357 188T367 252Q367 296 340 323T263 350Q222 350 188 323T127 257Q125 244 124 224T122 187Q122 129 148 94T227 59Z"  />
<glyph unicode="7" horiz-adv-x="422" d="M43 0L382 597H104L119 667H490L478 612L132 0H43Z"  />
<glyph unicode="8" horiz-adv-x="486" d="M216 -12Q174 -12 139 -3T77 24T37 72T22 140Q22 211 68 268T199 352Q182 361 166 375T136 406T116 445T108 490Q108 532 125 566T170 625T236 663T312 677Q347 677 380 668T439 641T480 595T496 529Q496 490 483 459T447 403T394 363T330 337Q349 326 366 311T397 276T419 234T427 186Q427 142 411 106T365 44T298 3T216 -12ZM272 374Q299 379 324 390T368 418T400 461T412 518Q412 557 383 581T308 605Q284 605 262 596T224 570T198 530T188 479Q188 460 196 444T216 413T243 389T272 374ZM217 59Q241 59 264 69T306 97T336 140T348 195Q348 219 339 238T317 273T287 297T258 312Q228 307 200 294T151 260T118 213T105 155Q105 106 138 83T217 59Z"  />
<glyph unicode="9" horiz-adv-x="492" d="M307 678Q352 678 385 663T441 621T474 554T485 468Q485 429 478 378T455 274T416 170T359 78T284 14T189 -11Q132 -11 90 16T27 90L83 141Q95 103 123 82T194 60Q234 60 265 83T319 144T359 227T387 317Q389 325 389 329T392 338Q380 321 363 306T326 277T283 257T235 249Q202 249 174 259T125 289T93 338T81 405Q81 453 97 501T143 589T214 653T307 678ZM303 607Q271 607 245 588T201 541T173 478T163 414Q163 371 190 344T267 316Q309 316 343 343T403 409Q405 422 407 442T409 479Q409 537 382 572T303 607Z"  />
<glyph unicode=":" horiz-adv-x="228" d="M65 -10Q44 -10 30 4T16 39Q16 63 33 80T75 97Q95 97 109 83T123 47Q123 23 106 7T65 -10ZM152 383Q131 383 117 397T103 433Q103 456 120 473T161 490Q182 490 196 476T210 441Q210 417 193 400T152 383Z"  />
<glyph unicode=";" horiz-adv-x="228" d="M125 40Q125 17 116 -6T91 -51T55 -90T12 -120L-18 -88Q9 -74 33 -52T65 -4Q64 -5 62 -5T57 -5Q40 -5 28 7T16 39Q16 63 33 80T74 97Q95 97 110 83T125 40ZM152 383Q131 383 117 397T103 433Q103 456 120 473T161 490Q182 490 196 476T210 441Q210 417 193 400T152 383Z"  />
<glyph unicode="&lt;" horiz-adv-x="439" d="M43 309L54 360L475 544L461 480L110 331L395 183L382 126L43 309Z"  />
<glyph unicode="=" horiz-adv-x="439" d="M64 405L76 456H456L445 405H64ZM21 212L33 262H413L402 212H21Z"  />
<glyph unicode="&gt;" horiz-adv-x="439" d="M2 126L17 189L368 337L83 486L95 544L435 360L423 309L2 126Z"  />
<glyph unicode="?" horiz-adv-x="387" d="M155 184Q147 198 143 215T138 250Q138 286 153 312T190 358T239 397T287 434T325 475T340 529Q340 562 316 585T247 608Q185 608 137 563L106 618Q142 650 180 664T261 678Q297 678 327 668T378 640T412 598T424 545Q424 504 408 474T368 420T316 377T264 339T224 300T208 252Q208 244 210 232T220 210L155 184ZM142 -10Q122 -10 108 4T94 39Q94 63 111 80T152 97Q172 97 186 83T201 47Q201 23 184 7T142 -10Z"  />
<glyph unicode="@" horiz-adv-x="691" d="M327 -70Q267 -70 217 -48T131 13T75 108T55 230Q55 311 84 385T164 515T280 605T418 639Q476 639 523 618T605 560T657 471T676 358Q676 295 662 245T625 159T574 104T515 85Q477 85 456 107T432 161V167Q409 134 376 110T299 85Q247 85 212 120T177 228Q177 279 193 328T238 415T305 476T386 499Q425 499 450 477T486 424L498 483H563L505 209Q504 204 504 197T503 184Q503 137 541 137Q554 137 571 150T603 190T630 258T641 357Q641 414 625 460T579 538T508 587T416 605Q350 605 291 574T187 490T116 370T90 231Q90 172 107 123T157 39T233 -17T332 -37Q380 -37 419 -22T493 19L510 -7Q468 -37 423 -53T327 -70ZM321 139Q342 139 360 146T393 166T420 194T442 224L474 374Q471 386 465 398T449 421T426 438T396 445Q362 445 335 425T287 375T256 307T245 234Q245 191 264 165T321 139Z"  />
<glyph unicode="A" horiz-adv-x="511" d="M366 0L356 151H119L43 0H-46L301 667H396L449 0H366ZM332 579L152 221H355L332 579Z"  />
<glyph unicode="B" horiz-adv-x="516" d="M16 0L163 667H361Q395 667 423 657T471 627T502 581T513 523Q513 489 503 458T474 401T429 358T373 336Q393 330 408 317T433 287T449 250T455 209Q455 171 443 134T405 67T342 19T252 0H16ZM313 376Q344 376 366 389T401 422T421 466T428 511Q428 551 403 574T340 597H227L178 376H313ZM247 71Q277 71 300 83T340 115T365 161T374 215Q374 258 350 282T281 306H163L111 71H247Z"  />
<glyph unicode="C" horiz-adv-x="533" d="M272 -12Q222 -12 182 4T112 51T66 127T50 229Q50 309 73 389T137 533T237 638T366 678Q407 678 439 666T497 634T539 585T567 523L492 500Q457 607 360 607Q312 607 271 573T199 483T151 361T133 229Q133 148 170 104T277 59Q313 59 347 80T413 140L474 102Q432 44 380 16T272 -12Z"  />
<glyph unicode="D" horiz-adv-x="564" d="M16 0L163 667H337Q378 667 415 651T482 604T528 528T545 425Q545 384 537 337T512 242T467 151T400 74T310 20T194 0H16ZM207 71Q271 71 319 106T399 193T447 307T463 422Q463 463 452 495T422 550T378 585T322 597H227L111 71H207Z"  />
<glyph unicode="E" horiz-adv-x="461" d="M16 0L163 667H506L491 597H227L178 376H435L419 306H163L111 71H374L359 0H16Z"  />
<glyph unicode="F" horiz-adv-x="451" d="M16 0L163 667H506L491 597H227L178 376H435L419 306H163L96 0H16Z"  />
<glyph unicode="G" horiz-adv-x="562" d="M272 -12Q222 -12 181 4T111 52T66 127T50 229Q50 309 72 389T136 534T237 638T369 678Q409 678 441 666T497 634T537 588T563 532L493 507Q478 552 445 579T360 607Q312 607 271 573T199 484T151 363T133 229Q133 146 171 103T277 59Q318 59 349 78T404 123L437 271H277L293 342H528L473 92Q432 42 382 15T272 -12Z"  />
<glyph unicode="H" horiz-adv-x="574" d="M370 0L438 308H163L96 0H16L163 667H243L179 378H454L517 667H597L450 0H370Z"  />
<glyph unicode="I" horiz-adv-x="220" d="M16 0L163 667H243L96 0H16Z"  />
<glyph unicode="J" horiz-adv-x="398" d="M117 -12Q72 -12 33 4T-29 55L14 114Q30 87 55 73T112 59Q163 59 192 88T233 173L342 667H421L312 171Q291 76 243 32T117 -12Z"  />
<glyph unicode="K" horiz-adv-x="509" d="M352 0L218 298L142 214L96 0H16L163 667H243L169 331L471 667H570L277 350L442 0H352Z"  />
<glyph unicode="L" horiz-adv-x="425" d="M16 0L163 667H243L111 71H352L337 0H16Z"  />
<glyph unicode="M" horiz-adv-x="683" d="M481 0L599 536L303 0H272L214 536L96 0H16L163 667H271L324 181L594 667H706L559 0H481Z"  />
<glyph unicode="N" horiz-adv-x="572" d="M371 0L208 511L96 0H16L163 667H243L404 167L515 667H595L448 0H371Z"  />
<glyph unicode="O" horiz-adv-x="599" d="M272 -12Q221 -12 180 5T110 54T66 130T50 229Q50 305 72 384T134 529T233 636T366 678Q416 678 457 661T527 612T572 536T588 437Q588 361 566 282T503 137T404 30T272 -12ZM277 59Q326 59 367 93T439 182T487 303T505 436Q505 517 465 562T360 607Q311 607 270 573T198 484T150 362T133 229Q133 148 172 104T277 59Z"  />
<glyph unicode="P" horiz-adv-x="487" d="M16 0L163 667H350Q386 667 415 655T465 621T497 569T508 505Q508 464 495 422T453 345T381 289T276 267H154L96 0H16ZM283 337Q318 337 344 351T389 387T416 439T425 499Q425 544 400 570T335 597H227L169 337H283Z"  />
<glyph unicode="Q" horiz-adv-x="599" d="M272 -12Q221 -12 180 5T110 54T66 130T50 229Q50 305 72 384T134 529T233 636T366 678Q416 678 457 661T527 612T572 536T588 437Q588 383 577 327T545 219T494 122T425 45L449 -10L386 -33L368 9Q345 -1 322 -6T272 -12ZM277 59Q308 59 340 75L286 204L349 227L394 118Q419 145 439 182T474 260T497 347T505 436Q505 517 465 562T360 607Q311 607 270 573T198 484T150 362T133 229Q133 148 172 104T277 59Z"  />
<glyph unicode="R" horiz-adv-x="509" d="M324 0L255 267H154L96 0H16L163 667H348Q381 667 410 656T461 623T496 572T509 505Q509 460 496 421T459 351T403 301T332 275L410 0H324ZM284 337Q318 337 344 351T389 387T416 439T425 499Q425 546 399 571T335 597H227L169 337H284Z"  />
<glyph unicode="S" horiz-adv-x="470" d="M205 -12Q138 -12 83 14T0 82L52 140Q77 103 118 81T209 59Q239 59 262 69T301 96T326 137T335 187Q335 216 318 238T274 280T218 319T161 361T118 413T100 484Q100 524 116 559T159 620T224 662T306 678Q362 678 410 657T488 598L438 541Q414 573 377 590T300 607Q275 607 254 598T217 574T193 538T184 495Q184 468 201 448T245 408T301 369T358 325T401 271T419 199Q419 157 404 119T362 52T294 5T205 -12Z"  />
<glyph unicode="T" horiz-adv-x="446" d="M129 0L261 597H103L118 667H514L499 597H340L208 0H129Z"  />
<glyph unicode="U" horiz-adv-x="569" d="M259 -12Q166 -12 113 36T59 169Q59 195 64 217L163 667H243L143 215Q142 210 141 199T139 176Q139 122 171 90T262 58Q325 58 360 97T412 215L512 667H591L492 216Q467 106 413 47T259 -12Z"  />
<glyph unicode="V" horiz-adv-x="511" d="M154 0L101 667H184L219 95L507 667H596L249 0H154Z"  />
<glyph unicode="W" horiz-adv-x="715" d="M412 0L420 526L195 0H110L109 667H193L181 123L416 667H483L476 123L706 667H792L497 0H412Z"  />
<glyph unicode="X" horiz-adv-x="510" d="M361 0L264 273L51 0H-46L229 345L112 667H200L288 408L486 667H584L323 336L448 0H361Z"  />
<glyph unicode="Y" horiz-adv-x="499" d="M156 0L218 282L97 667H181L270 359L495 667H588L297 282L235 0H156Z"  />
<glyph unicode="Z" horiz-adv-x="462" d="M-14 0L1 67L392 597H118L133 667H508L494 601L100 71H383L368 0H-14Z"  />
<glyph unicode="[" horiz-adv-x="213" d="M-59 -190L133 678H291L279 625H178L9 -137H110L98 -190H-59Z"  />
<glyph unicode="\" horiz-adv-x="248" d="M94 687H150L190 -20H134L94 687Z"  />
<glyph unicode="]" horiz-adv-x="213" d="M-79 -190L-67 -137H34L203 625H101L113 678H271L78 -190H-79Z"  />
<glyph unicode="^" horiz-adv-x="381" d="M325 333L273 610L99 333H38L256 667H311L381 333H325Z"  />
<glyph unicode="_" horiz-adv-x="422" d="M-77 -93L-65 -40H362L349 -93H-77Z"  />
<glyph unicode="`" horiz-adv-x="186" d="M203 556L101 700H174L255 556H203Z"  />
<glyph unicode="a" horiz-adv-x="480" d="M252 495Q294 495 328 474T380 410L396 483H467L360 0H288L303 66Q249 -12 173 -12Q108 -12 70 32T31 159Q31 211 45 270T88 379T157 462T252 495ZM262 431Q226 431 197 405T148 338T118 253T107 169Q107 112 132 82T202 52Q237 52 268 76T318 133L367 351Q356 385 328 408T262 431Z"  />
<glyph unicode="b" horiz-adv-x="480" d="M227 -12Q184 -12 151 9T99 73L83 0H12L159 667H230L175 417Q229 495 306 495Q371 495 409 451T447 324Q447 272 433 213T390 104T321 21T227 -12ZM217 52Q253 52 282 78T331 145T361 230T372 314Q372 371 347 401T277 431Q242 431 211 407T160 350L112 132Q123 98 151 75T217 52Z"  />
<glyph unicode="c" horiz-adv-x="406" d="M210 -12Q131 -12 82 36T33 179Q33 234 50 290T98 391T174 466T274 495Q324 495 359 476T415 425L367 379Q353 405 329 418T276 431Q235 431 204 407T151 345T118 264T107 180Q107 114 139 83T219 52Q248 52 271 64T312 96L342 45Q316 19 284 4T210 -12Z"  />
<glyph unicode="d" horiz-adv-x="480" d="M252 495Q294 495 328 474T380 410L436 667H508L360 0H288L303 66Q249 -12 173 -12Q108 -12 70 32T31 159Q31 211 45 270T88 379T157 462T252 495ZM262 431Q226 431 197 405T148 338T118 253T107 169Q107 112 132 82T202 52Q237 52 268 76T318 133L367 351Q356 385 328 408T262 431Z"  />
<glyph unicode="e" horiz-adv-x="468" d="M220 -12Q132 -12 82 37T32 178Q32 226 48 281T94 384T169 463T271 495Q347 495 391 448T436 315Q436 289 432 263T423 218H108Q106 207 105 195T104 173Q104 147 111 125T134 85T172 58T227 48Q256 48 286 61T340 98L368 51Q338 21 300 5T220 -12ZM364 271Q370 293 370 318Q370 367 344 401T265 435Q236 435 211 420T167 382T135 329T117 271H364Z"  />
<glyph unicode="f" horiz-adv-x="254" d="M29 0L122 420H58L73 483H136L149 542Q162 601 195 639T288 677Q315 677 338 668T377 642L339 594Q322 616 292 616Q261 616 245 597T220 542L208 483H290L276 420H194L101 0H29Z"  />
<glyph unicode="g" horiz-adv-x="479" d="M156 -196Q102 -196 57 -181T-18 -127L26 -75Q45 -104 79 -119T155 -135Q201 -135 236 -105T287 -3L305 74Q279 36 245 16T172 -5Q112 -5 72 36T31 165Q31 215 45 273T87 380T156 462T251 495Q289 495 325 472T379 410L395 483H467L360 1Q348 -55 328 -92T281 -153T222 -186T156 -196ZM202 59Q235 59 267 82T319 138L366 350Q354 384 325 407T258 431Q222 431 194 405T147 341T117 258T106 176Q106 117 131 88T202 59Z"  />
<glyph unicode="h" horiz-adv-x="465" d="M274 0L350 344Q351 349 352 358T354 373Q354 404 335 417T285 431Q268 431 251 424T217 406T187 381T161 352L83 0H12L159 667H230L175 416Q202 447 238 471T319 495Q371 495 400 470T430 398Q430 392 429 381T425 362L345 0H274Z"  />
<glyph unicode="i" horiz-adv-x="203" d="M174 553Q155 553 143 565T130 595Q130 621 148 636T185 651Q205 651 217 638T230 608Q230 582 212 568T174 553ZM12 0L119 483H190L83 0H12Z"  />
<glyph unicode="j" horiz-adv-x="203" d="M-63 -196Q-92 -196 -115 -187T-152 -158L-116 -108Q-109 -120 -97 -127T-69 -135Q-45 -135 -28 -118T-2 -59L119 483H190L70 -59Q54 -129 24 -162T-63 -196ZM174 553Q155 553 143 565T130 595Q130 621 148 636T185 651Q205 651 217 638T230 608Q230 582 212 568T174 553Z"  />
<glyph unicode="k" horiz-adv-x="438" d="M287 0L201 221L112 131L83 0H12L159 667H230L133 226L388 483H476L259 266L369 0H287Z"  />
<glyph unicode="l" horiz-adv-x="203" d="M12 0L159 667H230L83 0H12Z"  />
<glyph unicode="m" horiz-adv-x="692" d="M500 0L577 347Q578 351 579 358T581 374Q581 402 564 416T521 431Q489 431 458 407T405 352L328 0H256L333 347Q335 355 336 362T337 378Q336 402 321 416T276 431Q244 431 214 407T161 352L83 0H12L119 483H190L175 416Q186 430 200 444T232 469T269 488T310 495Q335 495 354 488T385 469T404 443T411 416Q411 413 410 409Q437 444 473 469T554 495Q598 495 627 470T657 399Q657 391 656 381T652 362L572 0H500Z"  />
<glyph unicode="n" horiz-adv-x="465" d="M273 0L350 344Q351 350 352 358T354 373Q354 404 336 417T288 431Q251 431 218 407T161 352L83 0H12L119 483H190L175 416Q202 447 238 471T319 495Q370 495 400 470T430 398Q430 393 429 381T425 362L345 0H273Z"  />
<glyph unicode="o" horiz-adv-x="477" d="M205 -12Q124 -12 78 36T32 174Q32 228 48 285T96 388T171 465T270 495Q351 495 397 446T443 309Q443 255 427 198T379 95T304 18T205 -12ZM208 52Q245 52 274 77T325 141T357 225T369 308Q369 370 342 400T267 431Q231 431 201 405T150 341T118 257T106 174Q106 112 133 82T208 52Z"  />
<glyph unicode="p" horiz-adv-x="478" d="M227 -12Q184 -12 151 9T99 73L42 -184H-29L119 483H190L175 417Q229 495 306 495Q371 495 409 451T447 324Q447 272 433 213T390 104T321 21T227 -12ZM217 52Q253 52 282 78T331 145T361 230T372 314Q372 371 347 401T277 431Q242 431 211 407T160 350L112 132Q123 98 151 75T217 52Z"  />
<glyph unicode="q" horiz-adv-x="478" d="M252 495Q294 495 328 474T380 410L395 483H467L319 -184H247L303 66Q249 -12 173 -12Q108 -12 70 32T31 159Q31 211 45 270T88 379T157 462T252 495ZM262 431Q226 431 197 405T148 338T118 253T107 169Q107 112 132 82T202 52Q237 52 268 76T318 133L367 351Q356 385 328 408T262 431Z"  />
<glyph unicode="r" horiz-adv-x="291" d="M12 0L119 483H190L174 412Q203 451 239 472T329 493L312 420Q307 421 299 422T282 423Q245 423 213 400T159 343L83 0H12Z"  />
<glyph unicode="s" horiz-adv-x="387" d="M159 -12Q104 -12 61 7T-7 64L38 112Q54 86 87 66T162 46Q205 46 231 72T257 131Q257 153 243 169T207 199T161 226T114 257T79 296T64 349Q64 378 75 404T106 451T157 483T226 495Q274 495 314 476T376 426L334 380Q321 404 290 420T223 437Q182 437 159 416T135 362Q135 342 149 327T185 298T232 271T278 240T314 200T329 145Q329 113 317 85T283 35T230 1T159 -12Z"  />
<glyph unicode="t" horiz-adv-x="263" d="M140 -12Q95 -12 70 7T44 67Q44 73 45 81T48 99L119 420H55L69 483H134L163 615H234L205 483H287L273 420H191L122 112Q121 107 120 101T119 88Q119 52 158 52Q169 52 179 56T197 66L206 10Q194 0 178 -6T140 -12Z"  />
<glyph unicode="u" horiz-adv-x="465" d="M190 483L114 140Q112 132 111 125T110 110Q110 79 129 66T179 52Q196 52 213 58T246 76T276 100T302 129L380 483H452L345 0H273L289 67Q261 36 225 12T145 -12Q94 -12 64 13T34 85Q34 90 35 102T39 121L119 483H190Z"  />
<glyph unicode="v" horiz-adv-x="408" d="M110 0L59 483H134L166 85L375 483H455L189 0H110Z"  />
<glyph unicode="w" horiz-adv-x="638" d="M368 0L350 388L161 0H88L66 483H138L147 97L335 483H402L420 97L600 483H678L442 0H368Z"  />
<glyph unicode="x" horiz-adv-x="406" d="M263 0L195 194L40 0H-42L159 246L73 483H150L212 299L356 483H439L246 246L340 0H263Z"  />
<glyph unicode="y" horiz-adv-x="408" d="M-29 -123Q-24 -127 -14 -129T6 -131Q24 -131 37 -121T66 -84L109 -8L59 483H134L166 87L375 483H455L132 -102Q103 -154 73 -175T3 -196Q-13 -196 -28 -193T-54 -186L-29 -123Z"  />
<glyph unicode="z" horiz-adv-x="387" d="M-11 0L1 56L287 420H82L96 483H393L381 428L93 63H303L290 0H-11Z"  />
<glyph unicode="{" horiz-adv-x="231" d="M81 -190Q62 -190 45 -184T14 -165T-8 -136T-16 -96Q-16 -89 -15 -82T-12 -69L36 150Q37 155 38 159T39 169Q39 191 29 205T0 220L11 268Q40 268 56 288T78 338L127 558Q141 620 177 649T264 678H310L298 625H252Q226 625 209 608T183 558L132 326Q124 294 110 272T67 238Q81 230 88 216T96 184Q96 176 95 168T92 150L44 -69Q43 -74 43 -78T42 -88Q42 -111 55 -124T87 -137H130L117 -190H81Z"  />
<glyph unicode="|" horiz-adv-x="194" d="M90 -20V687H144V-20H90Z"  />
<glyph unicode="}" horiz-adv-x="231" d="M149 678Q168 678 185 672T216 653T238 624T246 584Q246 578 245 570T243 557L194 338Q193 333 193 328T192 318Q192 297 201 283T231 268L220 220Q191 220 175 200T152 150L103 -70Q89 -132 53 -161T-34 -190H-80L-68 -137H-22Q4 -137 21 -120T47 -71L99 162Q106 194 120 216T163 250Q149 258 142 272T134 304Q134 312 135 320T138 338L186 557Q187 562 187 566T188 575Q188 598 175 611T143 625H101L113 678H149Z"  />
<glyph unicode="~" horiz-adv-x="449" d="M514 661Q505 620 491 578T457 502T410 446T348 424Q317 424 301 438T278 473T268 519T263 565T253 601T227 615Q196 615 169 566T121 423L68 429Q77 470 91 512T125 589T171 644T233 666Q264 666 280 652T303 617T313 570T318 524T328 488T354 474Q385 474 412 523T460 667L514 661Z"  />
<glyph unicode="&#xA0;" horiz-adv-x="215" />
<glyph unicode="&#xA1;" horiz-adv-x="228" d="M156 298L64 -184H-26L96 298H156ZM162 493Q182 493 196 479T211 444Q211 420 194 404T152 387Q132 387 118 401T104 435Q104 460 121 476T162 493Z"  />
<glyph unicode="&#xA2;" horiz-adv-x="406" d="M155 -5Q99 10 66 56T33 179Q33 233 49 288T96 388T170 462T266 494L282 565H339L322 489Q385 474 415 425L367 379Q346 415 308 426L225 52Q251 54 273 65T312 96L342 45Q316 19 285 4T211 -12L191 -100H134L155 -5ZM107 180Q107 132 124 103T170 61L251 428Q216 420 190 394T145 333T117 257T107 180Z"  />
<glyph unicode="&#xA3;" horiz-adv-x="449" d="M41 321H134Q122 350 109 379T95 449Q95 495 112 536T159 609T228 658T311 677Q342 677 370 669T421 646T459 608T479 557L409 530Q403 565 378 587T313 610Q287 610 264 598T221 563T191 510T180 442Q180 423 184 408T194 378T206 350T218 321H328L317 269H227Q227 239 217 212T192 160T158 117T121 86Q133 91 142 92T162 94Q182 94 198 89T230 76T261 64T293 58Q319 58 339 69T373 96L390 32Q370 13 343 0T284 -13Q254 -13 233 -6T194 9T158 24T115 31Q93 31 70 22T18 -7L2 52Q32 66 59 88T106 136T139 191T151 249Q151 254 151 259T149 269H30L41 321Z"  />
<glyph unicode="&#xA4;" horiz-adv-x="494" d="M219 99Q159 105 121 140L31 67L-9 118L84 193Q69 227 67 268T75 354Q92 435 141 492L84 565L135 606L189 535Q217 553 250 561T321 566Q380 559 418 524L510 599L550 549L455 472Q470 438 472 397T465 312Q456 272 439 237T398 173L455 101L404 60L350 130Q322 112 290 104T219 99ZM233 165Q264 161 290 172T337 206T372 257T393 320Q400 352 400 383T389 438T359 480T307 500Q275 504 249 493T202 459T168 408T147 346Q139 314 140 283T151 227T181 185T233 165Z"  />
<glyph unicode="&#xA5;" horiz-adv-x="499" d="M159 0L186 123H-6L6 174H197L221 282H30L41 333H205L100 667H184L273 359L498 667H591L338 333H496L485 282H300L276 174H461L449 123H265L238 0H159Z"  />
<glyph unicode="&#xA6;" horiz-adv-x="194" d="M90 -20V296H144V-20H90ZM90 371V687H144V371H90Z"  />
<glyph unicode="&#xA7;" horiz-adv-x="389" d="M367 323Q367 275 339 237T254 180Q284 160 298 133T312 77Q312 46 301 18T267 -33T215 -68T146 -81Q88 -81 44 -63T-29 -9L16 36Q35 7 68 -10T143 -27Q185 -27 212 0T240 67Q240 90 226 106T191 136T146 162T100 191T65 230T51 286Q51 335 83 372T179 421Q145 441 125 469T105 533Q105 563 116 589T149 634T199 665T263 677Q319 677 358 660T422 610L380 570Q360 599 329 611T266 623Q226 623 201 599T175 542Q175 519 189 503T224 473T271 446T317 417T353 378T367 323ZM296 308Q296 340 276 359T231 393Q201 389 180 380T145 357T126 329T120 299Q120 269 143 248T206 207Q255 222 275 249T296 308Z"  />
<glyph unicode="&#xA8;" horiz-adv-x="268" d="M345 608Q345 588 330 574T295 559Q278 559 267 570T255 599Q255 619 270 633T305 648Q322 648 333 637T345 608ZM172 608Q172 588 157 574T121 559Q104 559 93 570T81 599Q81 619 96 633T132 648Q149 648 160 637T172 608Z"  />
<glyph unicode="&#xA9;" horiz-adv-x="778" d="M754 334Q754 263 727 200T653 90T543 16T408 -11Q337 -11 274 16T165 90T91 200T64 334Q64 406 91 468T164 578T274 652T408 679Q480 679 543 652T653 578T727 469T754 334ZM724 334Q724 399 699 456T631 556T531 624T408 649Q343 649 286 624T187 557T120 457T95 334Q95 269 119 212T186 112T286 45T408 20Q473 20 530 44T631 112T699 212T724 334ZM524 173Q497 150 464 136T390 121Q345 121 310 135T249 175T211 234T198 307Q198 358 218 402T271 479T346 529T434 548Q485 548 525 529T589 468L559 446Q541 481 509 498T433 516Q397 516 362 501T298 457T252 391T234 308Q234 276 245 248T276 199T326 166T390 153Q422 153 453 167T505 201L524 173Z"  />
<glyph unicode="&#xAA;" horiz-adv-x="351" d="M242 603Q219 603 201 588T168 550T147 498T139 442Q139 403 156 383T202 363Q226 363 246 378T280 414L311 556Q304 576 285 589T242 603ZM385 640L316 326H260L270 371Q250 343 228 331T180 318Q139 318 110 347T81 438Q81 474 91 511T121 579T169 629T231 648Q260 648 283 635T320 596L330 640H385Z"  />
<glyph unicode="&#xAB;" horiz-adv-x="382" d="M114 63L29 243L194 420H264L95 239L178 63H114ZM244 63L159 243L324 420H394L225 239L308 63H244Z"  />
<glyph unicode="&#xAC;" horiz-adv-x="441" d="M402 212H349L392 405H64L76 456H456L402 212Z"  />
<glyph unicode="&#xAD;" horiz-adv-x="267" d="M22 210L36 274H243L230 210H22Z"  />
<glyph unicode="&#xAE;" horiz-adv-x="494" d="M508 465Q508 421 492 383T446 315T378 270T295 253Q251 253 213 269T146 315T101 382T84 465Q84 509 100 548T146 615T213 660T296 677Q340 677 379 661T446 616T491 548T508 465ZM479 465Q479 504 465 537T425 595T367 634T295 648Q257 648 224 634T165 595T126 537T112 465Q112 427 126 394T165 335T223 296T295 281Q333 281 366 295T425 335T464 393T479 465ZM329 343L287 439H241L220 343H188L241 586H333Q362 586 382 569T403 522Q403 504 396 489T378 463T352 446T323 440L367 343H329ZM369 518Q369 538 357 548T328 558H267L247 468H315Q338 468 353 482T369 518Z"  />
<glyph unicode="&#xAF;" horiz-adv-x="306" d="M73 573L83 619H388L377 573H73Z"  />
<glyph unicode="&#xB0;" horiz-adv-x="289" d="M334 556Q334 531 325 509T299 471T260 445T213 435Q188 435 166 444T128 470T102 509T92 556Q92 581 101 603T127 641T166 667T213 677Q238 677 260 668T298 642T324 603T334 556ZM288 556Q288 586 266 608T213 630Q182 630 161 608T139 556Q139 525 160 504T212 482Q242 482 265 503T288 556Z"  />
<glyph unicode="&#xB1;" horiz-adv-x="439" d="M263 318L222 134H167L208 318H45L56 369H219L258 546H313L274 369H437L425 318H263ZM-20 22L-10 73H371L360 22H-20Z"  />
<glyph unicode="&#xB2;" horiz-adv-x="326" d="M80 421L90 468Q154 518 200 555T277 622T321 675T336 723Q336 752 316 765T269 779Q214 779 175 732L146 770Q171 797 202 812T272 827Q296 827 318 821T357 803T384 771T395 727Q395 697 379 669T334 610T262 545T169 469H340L330 421H80Z"  />
<glyph unicode="&#xB3;" horiz-adv-x="326" d="M357 539Q357 518 348 496T322 455T280 426T223 414Q175 414 140 433T88 486L130 518Q143 491 167 477T221 462Q240 462 255 469T279 489T294 516T299 548Q299 574 279 588T226 603Q218 603 211 603T198 602L208 650Q215 649 229 649T254 649Q289 649 312 669T335 724Q335 750 315 764T264 779Q214 779 173 736L146 771Q169 796 201 811T268 827Q322 827 357 803T393 731Q393 692 367 660T293 622Q321 615 339 593T357 539Z"  />
<glyph unicode="&#xB4;" horiz-adv-x="186" d="M121 556H67L212 700H287L121 556Z"  />
<glyph unicode="&#xB5;" horiz-adv-x="476" d="M42 -184H-30L119 483H191L114 139Q103 93 121 72T173 50Q208 50 243 73T301 127L380 483H452L368 106Q362 80 368 66T394 52Q398 52 403 52T412 53L404 -8Q397 -10 387 -11T366 -12Q322 -12 306 9T294 73Q267 37 230 13T155 -12Q130 -12 113 -3T88 23L42 -184Z"  />
<glyph unicode="&#xB6;" horiz-adv-x="449" d="M255 -100L416 623H327L166 -100H122L216 323Q188 323 163 334T120 367T90 416T79 479Q79 514 93 548T134 608T195 651T273 667H470L300 -100H255Z"  />
<glyph unicode="&#xB7;" horiz-adv-x="228" d="M109 191Q89 191 75 205T61 240Q61 264 78 281T119 298Q139 298 153 284T168 249Q168 225 151 208T109 191Z"  />
<glyph unicode="&#xB8;" horiz-adv-x="185" d="M6 -191Q-56 -191 -89 -153L-64 -119Q-50 -136 -31 -144T8 -152Q34 -152 48 -138T63 -104Q63 -76 32 -76Q14 -76 1 -91L-27 -73L23 11H66L25 -56Q37 -45 54 -45Q77 -45 92 -60T107 -102Q107 -140 79 -165T6 -191Z"  />
<glyph unicode="&#xB9;" horiz-adv-x="225" d="M150 421L220 742L146 679L118 715L245 821H296L208 421H150Z"  />
<glyph unicode="&#xBA;" horiz-adv-x="347" d="M205 318Q146 318 114 353T82 445Q82 479 93 515T126 580T178 629T245 648Q304 648 336 613T368 521Q368 487 357 451T324 386T272 337T205 318ZM206 364Q231 364 251 380T284 420T304 471T311 522Q311 559 293 579T243 600Q217 600 198 584T166 544T146 493T139 443Q139 406 156 385T206 364Z"  />
<glyph unicode="&#xBB;" horiz-adv-x="382" d="M139 420L224 240L59 63H-11L158 245L75 420H139ZM269 420L354 240L189 63H119L288 245L205 420H269Z"  />
<glyph unicode="&#xBC;" horiz-adv-x="673" d="M116 267L186 588L112 525L84 561L211 667H262L174 267H116ZM568 101L546 0H488L510 101H342L352 146L558 400H634L578 148H625L615 101H568ZM563 337L407 148H520L563 337ZM112 0H64L561 667H609L112 0Z"  />
<glyph unicode="&#xBD;" horiz-adv-x="707" d="M116 267L186 588L112 525L84 561L211 667H262L174 267H116ZM368 0L378 47Q442 97 488 134T565 201T609 254T624 302Q624 331 604 344T557 358Q502 358 463 311L434 349Q459 376 490 391T560 406Q584 406 606 400T645 382T672 350T683 306Q683 276 667 248T622 189T550 124T457 48H628L618 0H368ZM112 0H64L561 667H609L112 0Z"  />
<glyph unicode="&#xBE;" horiz-adv-x="745" d="M641 101L619 0H561L583 101H415L425 146L631 400H707L651 148H698L688 101H641ZM636 337L480 148H593L636 337ZM184 0H136L633 667H681L184 0ZM323 385Q323 364 314 342T288 301T246 272T189 260Q141 260 106 279T54 332L96 364Q109 337 133 323T187 308Q206 308 221 315T245 335T260 362T265 394Q265 420 245 434T192 449Q184 449 177 449T164 448L174 496Q181 495 195 495T220 495Q255 495 278 515T301 570Q301 596 281 610T230 625Q180 625 139 582L112 617Q135 642 167 657T234 673Q288 673 323 649T359 577Q359 538 333 506T259 468Q287 461 305 439T323 385Z"  />
<glyph unicode="&#xBF;" horiz-adv-x="332" d="M230 299Q248 269 248 232Q248 196 233 171T196 125T147 86T98 49T60 8T45 -46Q45 -79 69 -102T139 -125Q171 -125 198 -114T249 -81L279 -135Q243 -167 205 -181T125 -195Q89 -195 59 -185T7 -157T-27 -115T-39 -62Q-39 -21 -23 9T17 63T69 106T122 143T162 182T178 230Q178 239 176 251T165 273L230 299ZM243 493Q264 493 278 479T292 444Q292 420 275 403T233 386Q213 386 199 400T185 435Q185 459 202 476T243 493Z"  />
<glyph unicode="&#xC0;" horiz-adv-x="511" d="M366 0L356 151H119L43 0H-46L301 667H396L449 0H366ZM332 579L152 221H355L332 579ZM356 723L254 867H327L408 723H356Z"  />
<glyph unicode="&#xC1;" horiz-adv-x="511" d="M366 0L356 151H119L43 0H-46L301 667H396L449 0H366ZM332 579L152 221H355L332 579ZM366 723H312L457 867H532L366 723Z"  />
<glyph unicode="&#xC2;" horiz-adv-x="511" d="M433 723L385 828L293 723H245L357 867H427L478 723H433ZM366 0L356 151H119L43 0H-46L301 667H396L449 0H366ZM332 579L152 221H355L332 579Z"  />
<glyph unicode="&#xC3;" horiz-adv-x="511" d="M366 0L356 151H119L43 0H-46L301 667H396L449 0H366ZM332 579L152 221H355L332 579ZM419 721Q393 721 382 735T364 768T350 800T324 815Q307 815 294 794T270 727H227Q239 784 264 822T332 861Q357 861 369 847T388 815T402 783T427 768Q444 768 457 788T482 855H525Q512 798 487 760T419 721Z"  />
<glyph unicode="&#xC4;" horiz-adv-x="511" d="M503 775Q503 755 488 741T453 726Q436 726 425 737T413 766Q413 786 428 800T463 815Q480 815 491 804T503 775ZM330 775Q330 755 315 741T279 726Q262 726 251 737T239 766Q239 786 254 800T290 815Q307 815 318 804T330 775ZM366 0L356 151H119L43 0H-46L301 667H396L449 0H366ZM332 579L152 221H355L332 579Z"  />
<glyph unicode="&#xC5;" horiz-adv-x="511" d="M366 0L356 151H119L43 0H-46L301 667H396L449 0H366ZM332 579L152 221H355L332 579ZM365 691Q329 691 306 714T283 774Q283 794 291 812T313 844T345 866T383 874Q419 874 442 851T465 791Q465 771 457 753T436 721T404 699T365 691ZM368 729Q392 729 409 746T427 788Q427 809 414 822T381 836Q357 836 339 819T321 777Q321 757 334 743T368 729Z"  />
<glyph unicode="&#xC6;" horiz-adv-x="751" d="M306 0L339 151H148L46 0H-43L420 667H795L780 597H517L468 376H724L708 306H452L400 71H663L648 0H306ZM432 572L193 221H355L432 572Z"  />
<glyph unicode="&#xC7;" horiz-adv-x="533" d="M217 -191Q155 -191 122 -153L147 -119Q161 -136 180 -144T219 -152Q245 -152 259 -138T274 -104Q274 -76 243 -76Q225 -76 212 -91L184 -73L223 -7Q144 7 97 68T50 229Q50 309 73 389T137 533T237 638T366 678Q407 678 439 666T497 634T539 585T567 523L492 500Q457 607 360 607Q312 607 271 573T199 483T151 361T133 229Q133 148 170 104T277 59Q313 59 347 80T413 140L474 102Q432 44 380 16T272 -12H263L236 -56Q248 -45 265 -45Q288 -45 303 -60T318 -102Q318 -140 290 -165T217 -191Z"  />
<glyph unicode="&#xC8;" horiz-adv-x="461" d="M16 0L163 667H506L491 597H227L178 376H435L419 306H163L111 71H374L359 0H16ZM342 723L240 867H313L394 723H342Z"  />
<glyph unicode="&#xC9;" horiz-adv-x="461" d="M352 723H298L443 867H518L352 723ZM16 0L163 667H506L491 597H227L178 376H435L419 306H163L111 71H374L359 0H16Z"  />
<glyph unicode="&#xCA;" horiz-adv-x="461" d="M419 723L371 828L279 723H231L343 867H413L464 723H419ZM16 0L163 667H506L491 597H227L178 376H435L419 306H163L111 71H374L359 0H16Z"  />
<glyph unicode="&#xCB;" horiz-adv-x="461" d="M489 775Q489 755 474 741T439 726Q422 726 411 737T399 766Q399 786 414 800T449 815Q466 815 477 804T489 775ZM316 775Q316 755 301 741T265 726Q248 726 237 737T225 766Q225 786 240 800T276 815Q293 815 304 804T316 775ZM16 0L163 667H506L491 597H227L178 376H435L419 306H163L111 71H374L359 0H16Z"  />
<glyph unicode="&#xCC;" horiz-adv-x="220" d="M16 0L163 667H243L96 0H16ZM210 723L108 867H181L262 723H210Z"  />
<glyph unicode="&#xCD;" horiz-adv-x="220" d="M16 0L163 667H243L96 0H16ZM221 723H167L312 867H387L221 723Z"  />
<glyph unicode="&#xCE;" horiz-adv-x="220" d="M288 723L240 828L148 723H100L212 867H282L333 723H288ZM16 0L163 667H243L96 0H16Z"  />
<glyph unicode="&#xCF;" horiz-adv-x="220" d="M358 775Q358 755 343 741T308 726Q291 726 280 737T268 766Q268 786 283 800T318 815Q335 815 346 804T358 775ZM185 775Q185 755 170 741T134 726Q117 726 106 737T94 766Q94 786 109 800T145 815Q162 815 173 804T185 775ZM16 0L163 667H243L96 0H16Z"  />
<glyph unicode="&#xD0;" horiz-adv-x="587" d="M40 0L106 301H28L43 367H121L187 667H361Q402 667 439 651T506 604T552 528T569 425Q569 384 561 337T536 242T491 151T424 74T334 20T218 0H40ZM185 301L135 71H231Q295 71 343 106T423 193T471 307T487 422Q487 463 476 495T446 550T402 585T346 597H251L200 367H327L312 301H185Z"  />
<glyph unicode="&#xD1;" horiz-adv-x="572" d="M450 721Q424 721 413 735T395 768T381 800T355 815Q338 815 325 794T301 727H258Q270 784 295 822T363 861Q388 861 400 847T419 815T433 783T458 768Q475 768 488 788T513 855H556Q543 798 518 760T450 721ZM371 0L208 511L96 0H16L163 667H243L404 167L515 667H595L448 0H371Z"  />
<glyph unicode="&#xD2;" horiz-adv-x="599" d="M400 723L298 867H371L452 723H400ZM272 -12Q221 -12 180 5T110 54T66 130T50 229Q50 305 72 384T134 529T233 636T366 678Q416 678 457 661T527 612T572 536T588 437Q588 361 566 282T503 137T404 30T272 -12ZM277 59Q326 59 367 93T439 182T487 303T505 436Q505 517 465 562T360 607Q311 607 270 573T198 484T150 362T133 229Q133 148 172 104T277 59Z"  />
<glyph unicode="&#xD3;" horiz-adv-x="599" d="M411 723H357L502 867H577L411 723ZM272 -12Q221 -12 180 5T110 54T66 130T50 229Q50 305 72 384T134 529T233 636T366 678Q416 678 457 661T527 612T572 536T588 437Q588 361 566 282T503 137T404 30T272 -12ZM277 59Q326 59 367 93T439 182T487 303T505 436Q505 517 465 562T360 607Q311 607 270 573T198 484T150 362T133 229Q133 148 172 104T277 59Z"  />
<glyph unicode="&#xD4;" horiz-adv-x="599" d="M478 723L430 828L338 723H290L402 867H472L523 723H478ZM272 -12Q221 -12 180 5T110 54T66 130T50 229Q50 305 72 384T134 529T233 636T366 678Q416 678 457 661T527 612T572 536T588 437Q588 361 566 282T503 137T404 30T272 -12ZM277 59Q326 59 367 93T439 182T487 303T505 436Q505 517 465 562T360 607Q311 607 270 573T198 484T150 362T133 229Q133 148 172 104T277 59Z"  />
<glyph unicode="&#xD5;" horiz-adv-x="599" d="M272 -12Q221 -12 180 5T110 54T66 130T50 229Q50 305 72 384T134 529T233 636T366 678Q416 678 457 661T527 612T572 536T588 437Q588 361 566 282T503 137T404 30T272 -12ZM277 59Q326 59 367 93T439 182T487 303T505 436Q505 517 465 562T360 607Q311 607 270 573T198 484T150 362T133 229Q133 148 172 104T277 59ZM464 721Q438 721 427 735T409 768T395 800T369 815Q352 815 339 794T315 727H272Q284 784 309 822T377 861Q402 861 414 847T433 815T447 783T472 768Q489 768 502 788T527 855H570Q557 798 532 760T464 721Z"  />
<glyph unicode="&#xD6;" horiz-adv-x="599" d="M548 775Q548 755 533 741T498 726Q481 726 470 737T458 766Q458 786 473 800T508 815Q525 815 536 804T548 775ZM375 775Q375 755 360 741T324 726Q307 726 296 737T284 766Q284 786 299 800T335 815Q352 815 363 804T375 775ZM272 -12Q221 -12 180 5T110 54T66 130T50 229Q50 305 72 384T134 529T233 636T366 678Q416 678 457 661T527 612T572 536T588 437Q588 361 566 282T503 137T404 30T272 -12ZM277 59Q326 59 367 93T439 182T487 303T505 436Q505 517 465 562T360 607Q311 607 270 573T198 484T150 362T133 229Q133 148 172 104T277 59Z"  />
<glyph unicode="&#xD7;" horiz-adv-x="439" d="M234 298L77 169L45 208L204 337L105 463L146 496L243 370L401 499L433 460L275 331L372 205L332 172L234 298Z"  />
<glyph unicode="&#xD8;" horiz-adv-x="599" d="M272 -12Q182 -12 123 41L92 0H33L92 77Q50 139 50 229Q50 305 72 384T134 529T233 636T366 678Q410 678 446 665T512 626L543 667H602L544 591Q565 560 576 522T588 437Q588 361 566 282T503 137T404 30T272 -12ZM277 59Q326 59 367 93T439 182T487 303T505 436Q505 482 489 520L172 104Q211 59 277 59ZM133 229Q133 185 146 148L463 563Q424 607 360 607Q311 607 270 573T198 484T150 362T133 229Z"  />
<glyph unicode="&#xD9;" horiz-adv-x="569" d="M259 -12Q166 -12 113 36T59 169Q59 195 64 217L163 667H243L143 215Q142 210 141 199T139 176Q139 122 171 90T262 58Q325 58 360 97T412 215L512 667H591L492 216Q467 106 413 47T259 -12ZM384 723L282 867H355L436 723H384Z"  />
<glyph unicode="&#xDA;" horiz-adv-x="569" d="M395 723H341L486 867H561L395 723ZM259 -12Q166 -12 113 36T59 169Q59 195 64 217L163 667H243L143 215Q142 210 141 199T139 176Q139 122 171 90T262 58Q325 58 360 97T412 215L512 667H591L492 216Q467 106 413 47T259 -12Z"  />
<glyph unicode="&#xDB;" horiz-adv-x="569" d="M462 723L414 828L322 723H274L386 867H456L507 723H462ZM259 -12Q166 -12 113 36T59 169Q59 195 64 217L163 667H243L143 215Q142 210 141 199T139 176Q139 122 171 90T262 58Q325 58 360 97T412 215L512 667H591L492 216Q467 106 413 47T259 -12Z"  />
<glyph unicode="&#xDC;" horiz-adv-x="569" d="M531 775Q531 755 516 741T481 726Q464 726 453 737T441 766Q441 786 456 800T491 815Q508 815 519 804T531 775ZM358 775Q358 755 343 741T307 726Q290 726 279 737T267 766Q267 786 282 800T318 815Q335 815 346 804T358 775ZM259 -12Q166 -12 113 36T59 169Q59 195 64 217L163 667H243L143 215Q142 210 141 199T139 176Q139 122 171 90T262 58Q325 58 360 97T412 215L512 667H591L492 216Q467 106 413 47T259 -12Z"  />
<glyph unicode="&#xDD;" horiz-adv-x="499" d="M156 0L218 282L97 667H181L270 359L495 667H588L297 282L235 0H156ZM361 723H307L452 867H527L361 723Z"  />
<glyph unicode="&#xDE;" horiz-adv-x="487" d="M16 0L163 667H243L216 547H328Q361 547 389 535T438 501T469 449T481 385Q481 345 468 303T427 227T355 170T249 147H128L96 0H16ZM256 218Q292 218 318 232T362 268T389 320T398 379Q398 422 373 449T308 477H200L144 218H256Z"  />
<glyph unicode="&#xDF;" horiz-adv-x="524" d="M486 142Q486 113 475 86T443 37T390 2T319 -12Q263 -12 224 6T153 65L197 112Q216 85 244 66T318 47Q359 47 385 73T411 134Q411 155 398 170T364 197T321 222T277 249T244 286T230 338Q230 371 242 393T273 432T313 461T353 485T384 512T397 548Q397 578 372 595T312 613Q273 613 243 588T200 509L88 0H17L129 509Q137 546 153 576T193 629T247 664T316 677Q347 677 375 669T424 645T459 607T472 558Q472 526 460 505T428 468T387 440T346 415T315 387T302 349Q302 329 315 315T349 288T394 263T438 234T472 196T486 142Z"  />
<glyph unicode="&#xE0;" horiz-adv-x="480" d="M252 495Q294 495 328 474T380 410L396 483H467L360 0H288L303 66Q249 -12 173 -12Q108 -12 70 32T31 159Q31 211 45 270T88 379T157 462T252 495ZM262 431Q226 431 197 405T148 338T118 253T107 169Q107 112 132 82T202 52Q237 52 268 76T318 133L367 351Q356 385 328 408T262 431ZM298 556L196 700H269L350 556H298Z"  />
<glyph unicode="&#xE1;" horiz-adv-x="480" d="M252 495Q294 495 328 474T380 410L396 483H467L360 0H288L303 66Q249 -12 173 -12Q108 -12 70 32T31 159Q31 211 45 270T88 379T157 462T252 495ZM262 431Q226 431 197 405T148 338T118 253T107 169Q107 112 132 82T202 52Q237 52 268 76T318 133L367 351Q356 385 328 408T262 431ZM308 556H254L399 700H474L308 556Z"  />
<glyph unicode="&#xE2;" horiz-adv-x="480" d="M252 495Q294 495 328 474T380 410L396 483H467L360 0H288L303 66Q249 -12 173 -12Q108 -12 70 32T31 159Q31 211 45 270T88 379T157 462T252 495ZM262 431Q226 431 197 405T148 338T118 253T107 169Q107 112 132 82T202 52Q237 52 268 76T318 133L367 351Q356 385 328 408T262 431ZM375 556L327 661L235 556H187L299 700H369L420 556H375Z"  />
<glyph unicode="&#xE3;" horiz-adv-x="480" d="M252 495Q294 495 328 474T380 410L396 483H467L360 0H288L303 66Q249 -12 173 -12Q108 -12 70 32T31 159Q31 211 45 270T88 379T157 462T252 495ZM262 431Q226 431 197 405T148 338T118 253T107 169Q107 112 132 82T202 52Q237 52 268 76T318 133L367 351Q356 385 328 408T262 431ZM362 554Q336 554 325 568T307 601T293 633T267 648Q250 648 237 627T213 560H170Q182 617 207 655T275 694Q300 694 312 680T331 648T345 616T370 601Q387 601 400 621T425 688H468Q455 631 430 593T362 554Z"  />
<glyph unicode="&#xE4;" horiz-adv-x="480" d="M252 495Q294 495 328 474T380 410L396 483H467L360 0H288L303 66Q249 -12 173 -12Q108 -12 70 32T31 159Q31 211 45 270T88 379T157 462T252 495ZM262 431Q226 431 197 405T148 338T118 253T107 169Q107 112 132 82T202 52Q237 52 268 76T318 133L367 351Q356 385 328 408T262 431ZM446 608Q446 588 431 574T396 559Q379 559 368 570T356 599Q356 619 371 633T406 648Q423 648 434 637T446 608ZM273 608Q273 588 258 574T222 559Q205 559 194 570T182 599Q182 619 197 633T233 648Q250 648 261 637T273 608Z"  />
<glyph unicode="&#xE5;" horiz-adv-x="480" d="M252 495Q294 495 328 474T380 410L396 483H467L360 0H288L303 66Q249 -12 173 -12Q108 -12 70 32T31 159Q31 211 45 270T88 379T157 462T252 495ZM262 431Q226 431 197 405T148 338T118 253T107 169Q107 112 132 82T202 52Q237 52 268 76T318 133L367 351Q356 385 328 408T262 431ZM311 541Q275 541 252 564T229 624Q229 644 237 662T259 694T291 716T329 724Q365 724 388 701T411 641Q411 621 403 603T382 571T350 549T311 541ZM314 579Q338 579 355 596T373 638Q373 659 360 672T327 686Q303 686 285 669T267 627Q267 607 280 593T314 579Z"  />
<glyph unicode="&#xE6;" horiz-adv-x="767" d="M262 431Q226 431 197 405T148 338T118 253T107 169Q107 112 132 82T202 52Q237 52 268 76T318 133L367 351Q356 385 328 408T262 431ZM360 0H288L303 66Q249 -12 173 -12Q108 -12 70 32T31 159Q31 211 45 270T88 379T157 462T252 495Q294 495 328 474T380 410L396 483H467L451 409Q473 442 509 468T592 495Q661 495 699 451T737 319Q737 293 733 266T723 218H411Q409 207 408 195T407 173Q407 122 437 86T531 49Q560 49 588 62T640 100L669 49Q639 20 604 4T533 -12Q469 -12 432 19T384 107L360 0ZM664 271Q669 296 669 318Q669 367 645 401T568 435Q539 435 515 420T471 382T438 329T420 271H664Z"  />
<glyph unicode="&#xE7;" horiz-adv-x="406" d="M159 -191Q97 -191 64 -153L89 -119Q103 -136 122 -144T161 -152Q187 -152 201 -138T216 -104Q216 -76 185 -76Q167 -76 154 -91L126 -73L165 -7Q105 5 69 52T33 179Q33 234 50 290T98 391T174 466T274 495Q324 495 359 476T415 425L367 379Q353 405 329 418T276 431Q235 431 204 407T151 345T118 264T107 180Q107 114 139 83T219 52Q248 52 271 64T312 96L342 45Q316 19 284 4T210 -12H205L178 -56Q190 -45 207 -45Q230 -45 245 -60T260 -102Q260 -140 232 -165T159 -191Z"  />
<glyph unicode="&#xE8;" horiz-adv-x="468" d="M220 -12Q132 -12 82 37T32 178Q32 226 48 281T94 384T169 463T271 495Q347 495 391 448T436 315Q436 289 432 263T423 218H108Q106 207 105 195T104 173Q104 147 111 125T134 85T172 58T227 48Q256 48 286 61T340 98L368 51Q338 21 300 5T220 -12ZM364 271Q370 293 370 318Q370 367 344 401T265 435Q236 435 211 420T167 382T135 329T117 271H364ZM304 556L202 700H275L356 556H304Z"  />
<glyph unicode="&#xE9;" horiz-adv-x="468" d="M315 556H261L406 700H481L315 556ZM220 -12Q132 -12 82 37T32 178Q32 226 48 281T94 384T169 463T271 495Q347 495 391 448T436 315Q436 289 432 263T423 218H108Q106 207 105 195T104 173Q104 147 111 125T134 85T172 58T227 48Q256 48 286 61T340 98L368 51Q338 21 300 5T220 -12ZM364 271Q370 293 370 318Q370 367 344 401T265 435Q236 435 211 420T167 382T135 329T117 271H364Z"  />
<glyph unicode="&#xEA;" horiz-adv-x="468" d="M380 556L332 661L240 556H192L304 700H374L425 556H380ZM220 -12Q132 -12 82 37T32 178Q32 226 48 281T94 384T169 463T271 495Q347 495 391 448T436 315Q436 289 432 263T423 218H108Q106 207 105 195T104 173Q104 147 111 125T134 85T172 58T227 48Q256 48 286 61T340 98L368 51Q338 21 300 5T220 -12ZM364 271Q370 293 370 318Q370 367 344 401T265 435Q236 435 211 420T167 382T135 329T117 271H364Z"  />
<glyph unicode="&#xEB;" horiz-adv-x="468" d="M451 608Q451 588 436 574T401 559Q384 559 373 570T361 599Q361 619 376 633T411 648Q428 648 439 637T451 608ZM278 608Q278 588 263 574T227 559Q210 559 199 570T187 599Q187 619 202 633T238 648Q255 648 266 637T278 608ZM220 -12Q132 -12 82 37T32 178Q32 226 48 281T94 384T169 463T271 495Q347 495 391 448T436 315Q436 289 432 263T423 218H108Q106 207 105 195T104 173Q104 147 111 125T134 85T172 58T227 48Q256 48 286 61T340 98L368 51Q338 21 300 5T220 -12ZM364 271Q370 293 370 318Q370 367 344 401T265 435Q236 435 211 420T167 382T135 329T117 271H364Z"  />
<glyph unicode="&#xEC;" horiz-adv-x="203" d="M12 0L119 483H190L83 0H12ZM167 556L65 700H138L219 556H167Z"  />
<glyph unicode="&#xED;" horiz-adv-x="203" d="M176 556H122L267 700H342L176 556ZM12 0L119 483H190L83 0H12Z"  />
<glyph unicode="&#xEE;" horiz-adv-x="203" d="M245 556L197 661L105 556H57L169 700H239L290 556H245ZM12 0L119 483H190L83 0H12Z"  />
<glyph unicode="&#xEF;" horiz-adv-x="203" d="M315 608Q315 588 300 574T265 559Q248 559 237 570T225 599Q225 619 240 633T275 648Q292 648 303 637T315 608ZM142 608Q142 588 127 574T91 559Q74 559 63 570T51 599Q51 619 66 633T102 648Q119 648 130 637T142 608ZM12 0L119 483H190L83 0H12Z"  />
<glyph unicode="&#xF0;" horiz-adv-x="477" d="M168 553L294 591Q283 609 271 625T245 656L306 695Q341 652 367 612L459 640L470 601L388 576Q418 522 433 469T449 359Q449 296 434 231T388 111T312 23T209 -12Q124 -12 78 37T32 171Q32 225 48 280T93 379T163 452T252 480Q293 480 327 459T377 391Q369 429 354 471T316 555L178 514L168 553ZM210 52Q244 52 273 76T322 138T354 218T366 300Q366 320 360 341T342 378T309 405T261 416Q227 416 199 392T150 332T119 253T107 173Q107 113 134 83T210 52Z"  />
<glyph unicode="&#xF1;" horiz-adv-x="465" d="M273 0L350 344Q351 350 352 358T354 373Q354 404 336 417T288 431Q251 431 218 407T161 352L83 0H12L119 483H190L175 416Q202 447 238 471T319 495Q370 495 400 470T430 398Q430 393 429 381T425 362L345 0H273ZM360 554Q334 554 323 568T305 601T291 633T265 648Q248 648 235 627T211 560H168Q180 617 205 655T273 694Q298 694 310 680T329 648T343 616T368 601Q385 601 398 621T423 688H466Q453 631 428 593T360 554Z"  />
<glyph unicode="&#xF2;" horiz-adv-x="477" d="M205 -12Q124 -12 78 36T32 174Q32 228 48 285T96 388T171 465T270 495Q351 495 397 446T443 309Q443 255 427 198T379 95T304 18T205 -12ZM208 52Q245 52 274 77T325 141T357 225T369 308Q369 370 342 400T267 431Q231 431 201 405T150 341T118 257T106 174Q106 112 133 82T208 52ZM303 556L201 700H274L355 556H303Z"  />
<glyph unicode="&#xF3;" horiz-adv-x="477" d="M312 556H258L403 700H478L312 556ZM205 -12Q124 -12 78 36T32 174Q32 228 48 285T96 388T171 465T270 495Q351 495 397 446T443 309Q443 255 427 198T379 95T304 18T205 -12ZM208 52Q245 52 274 77T325 141T357 225T369 308Q369 370 342 400T267 431Q231 431 201 405T150 341T118 257T106 174Q106 112 133 82T208 52Z"  />
<glyph unicode="&#xF4;" horiz-adv-x="477" d="M380 556L332 661L240 556H192L304 700H374L425 556H380ZM205 -12Q124 -12 78 36T32 174Q32 228 48 285T96 388T171 465T270 495Q351 495 397 446T443 309Q443 255 427 198T379 95T304 18T205 -12ZM208 52Q245 52 274 77T325 141T357 225T369 308Q369 370 342 400T267 431Q231 431 201 405T150 341T118 257T106 174Q106 112 133 82T208 52Z"  />
<glyph unicode="&#xF5;" horiz-adv-x="477" d="M205 -12Q124 -12 78 36T32 174Q32 228 48 285T96 388T171 465T270 495Q351 495 397 446T443 309Q443 255 427 198T379 95T304 18T205 -12ZM208 52Q245 52 274 77T325 141T357 225T369 308Q369 370 342 400T267 431Q231 431 201 405T150 341T118 257T106 174Q106 112 133 82T208 52ZM367 554Q341 554 330 568T312 601T298 633T272 648Q255 648 242 627T218 560H175Q187 617 212 655T280 694Q305 694 317 680T336 648T350 616T375 601Q392 601 405 621T430 688H473Q460 631 435 593T367 554Z"  />
<glyph unicode="&#xF6;" horiz-adv-x="477" d="M450 608Q450 588 435 574T400 559Q383 559 372 570T360 599Q360 619 375 633T410 648Q427 648 438 637T450 608ZM277 608Q277 588 262 574T226 559Q209 559 198 570T186 599Q186 619 201 633T237 648Q254 648 265 637T277 608ZM205 -12Q124 -12 78 36T32 174Q32 228 48 285T96 388T171 465T270 495Q351 495 397 446T443 309Q443 255 427 198T379 95T304 18T205 -12ZM208 52Q245 52 274 77T325 141T357 225T369 308Q369 370 342 400T267 431Q231 431 201 405T150 341T118 257T106 174Q106 112 133 82T208 52Z"  />
<glyph unicode="&#xF7;" horiz-adv-x="443" d="M44 312L55 363H440L428 312H44ZM200 124Q183 124 172 136T160 165Q160 185 174 199T209 213Q226 213 238 201T250 172Q250 152 235 138T200 124ZM275 457Q258 457 246 469T234 499Q234 519 248 533T283 547Q300 547 312 535T324 506Q324 485 310 471T275 457Z"  />
<glyph unicode="&#xF8;" horiz-adv-x="477" d="M0 0L57 65Q32 108 32 174Q32 228 48 285T96 388T171 465T270 495Q308 495 338 484T392 451L420 483H472L416 419Q429 397 436 370T443 309Q443 255 427 198T379 95T304 18T205 -12Q128 -12 81 33L52 0H0ZM208 52Q245 52 274 77T325 141T357 225T369 308Q369 336 363 357L129 88Q154 52 208 52ZM106 174Q106 160 107 149T111 127L344 396Q318 431 267 431Q231 431 201 405T150 341T118 257T106 174Z"  />
<glyph unicode="&#xF9;" horiz-adv-x="465" d="M190 483L114 140Q112 132 111 125T110 110Q110 79 129 66T179 52Q196 52 213 58T246 76T276 100T302 129L380 483H452L345 0H273L289 67Q261 36 225 12T145 -12Q94 -12 64 13T34 85Q34 90 35 102T39 121L119 483H190ZM297 556L195 700H268L349 556H297Z"  />
<glyph unicode="&#xFA;" horiz-adv-x="465" d="M307 556H253L398 700H473L307 556ZM190 483L114 140Q112 132 111 125T110 110Q110 79 129 66T179 52Q196 52 213 58T246 76T276 100T302 129L380 483H452L345 0H273L289 67Q261 36 225 12T145 -12Q94 -12 64 13T34 85Q34 90 35 102T39 121L119 483H190Z"  />
<glyph unicode="&#xFB;" horiz-adv-x="465" d="M374 556L326 661L234 556H186L298 700H368L419 556H374ZM190 483L114 140Q112 132 111 125T110 110Q110 79 129 66T179 52Q196 52 213 58T246 76T276 100T302 129L380 483H452L345 0H273L289 67Q261 36 225 12T145 -12Q94 -12 64 13T34 85Q34 90 35 102T39 121L119 483H190Z"  />
<glyph unicode="&#xFC;" horiz-adv-x="465" d="M444 608Q444 588 429 574T394 559Q377 559 366 570T354 599Q354 619 369 633T404 648Q421 648 432 637T444 608ZM271 608Q271 588 256 574T220 559Q203 559 192 570T180 599Q180 619 195 633T231 648Q248 648 259 637T271 608ZM190 483L114 140Q112 132 111 125T110 110Q110 79 129 66T179 52Q196 52 213 58T246 76T276 100T302 129L380 483H452L345 0H273L289 67Q261 36 225 12T145 -12Q94 -12 64 13T34 85Q34 90 35 102T39 121L119 483H190Z"  />
<glyph unicode="&#xFD;" horiz-adv-x="408" d="M-29 -123Q-24 -127 -14 -129T6 -131Q24 -131 37 -121T66 -84L109 -8L59 483H134L166 87L375 483H455L132 -102Q103 -154 73 -175T3 -196Q-13 -196 -28 -193T-54 -186L-29 -123ZM275 556H221L366 700H441L275 556Z"  />
<glyph unicode="&#xFE;" horiz-adv-x="478" d="M227 -12Q184 -12 151 9T99 73L42 -184H-29L159 667H230L175 417Q229 495 306 495Q371 495 409 451T447 324Q447 272 433 213T390 104T321 21T227 -12ZM217 52Q253 52 282 78T331 145T361 230T372 314Q372 371 347 401T277 431Q242 431 211 407T160 350L112 132Q123 98 151 75T217 52Z"  />
<glyph unicode="&#xFF;" horiz-adv-x="408" d="M-29 -123Q-24 -127 -14 -129T6 -131Q24 -131 37 -121T66 -84L109 -8L59 483H134L166 87L375 483H455L132 -102Q103 -154 73 -175T3 -196Q-13 -196 -28 -193T-54 -186L-29 -123ZM413 608Q413 588 398 574T363 559Q346 559 335 570T323 599Q323 619 338 633T373 648Q390 648 401 637T413 608ZM240 608Q240 588 225 574T189 559Q172 559 161 570T149 599Q149 619 164 633T200 648Q217 648 228 637T240 608Z"  />
<glyph unicode="&#x110;" horiz-adv-x="587" d="M40 0L106 301H28L43 367H121L187 667H361Q402 667 439 651T506 604T552 528T569 425Q569 384 561 337T536 242T491 151T424 74T334 20T218 0H40ZM185 301L135 71H231Q295 71 343 106T423 193T471 307T487 422Q487 463 476 495T446 550T402 585T346 597H251L200 367H327L312 301H185Z"  />
<glyph unicode="&#x131;" horiz-adv-x="203" d="M12 0L119 483H190L83 0H12Z"  />
<glyph unicode="&#x152;" horiz-adv-x="850" d="M404 0L422 84Q387 33 342 11T246 -12Q202 -12 166 5T103 54T63 130T49 229Q49 282 59 336T89 439T136 532T200 608T277 658T368 677Q393 677 417 672T463 653T502 617T529 562L551 667H894L879 597H616L567 376H823L807 306H551L499 71H762L747 0H404ZM505 456Q497 530 461 568T366 606Q314 606 271 572T197 483T149 362T132 229Q132 153 168 106T271 59Q322 59 368 93T446 189L505 456Z"  />
<glyph unicode="&#x153;" horiz-adv-x="785" d="M430 218Q429 215 429 209T428 196T427 183T426 173Q426 118 456 83T547 48Q576 48 604 60T658 98L686 51Q656 21 619 5T540 -12Q504 -12 476 -2T427 26T394 66T378 112Q365 89 349 67T311 28T264 -1T203 -12Q124 -12 78 36T32 174Q32 230 48 287T96 391T170 466T268 495Q302 495 327 484T371 456T401 417T416 373Q429 395 446 417T484 456T532 484T590 495Q664 495 709 449T754 315Q754 289 750 263T741 218H430ZM682 271Q684 280 686 294T688 318Q688 370 662 402T585 435Q554 435 529 420T486 380T455 327T439 271H682ZM365 308Q365 372 337 401T265 431Q229 431 200 406T150 343T118 259T106 174Q106 117 131 84T206 51Q242 51 271 76T321 140T353 224T365 308Z"  />
<glyph unicode="&#x160;" horiz-adv-x="470" d="M310 723L259 867H303L351 761L443 867H492L380 723H310ZM205 -12Q138 -12 83 14T0 82L52 140Q77 103 118 81T209 59Q239 59 262 69T301 96T326 137T335 187Q335 216 318 238T274 280T218 319T161 361T118 413T100 484Q100 524 116 559T159 620T224 662T306 678Q362 678 410 657T488 598L438 541Q414 573 377 590T300 607Q275 607 254 598T217 574T193 538T184 495Q184 468 201 448T245 408T301 369T358 325T401 271T419 199Q419 157 404 119T362 52T294 5T205 -12Z"  />
<glyph unicode="&#x161;" horiz-adv-x="387" d="M230 556L179 700H223L271 594L363 700H412L300 556H230ZM159 -12Q104 -12 61 7T-7 64L38 112Q54 86 87 66T162 46Q205 46 231 72T257 131Q257 153 243 169T207 199T161 226T114 257T79 296T64 349Q64 378 75 404T106 451T157 483T226 495Q274 495 314 476T376 426L334 380Q321 404 290 420T223 437Q182 437 159 416T135 362Q135 342 149 327T185 298T232 271T278 240T314 200T329 145Q329 113 317 85T283 35T230 1T159 -12Z"  />
<glyph unicode="&#x178;" horiz-adv-x="499" d="M499 775Q499 755 484 741T449 726Q432 726 421 737T409 766Q409 786 424 800T459 815Q476 815 487 804T499 775ZM326 775Q326 755 311 741T275 726Q258 726 247 737T235 766Q235 786 250 800T286 815Q303 815 314 804T326 775ZM156 0L218 282L97 667H181L270 359L495 667H588L297 282L235 0H156Z"  />
<glyph unicode="&#x17D;" horiz-adv-x="462" d="M301 723L250 867H294L342 761L434 867H483L371 723H301ZM-14 0L1 67L392 597H118L133 667H508L494 601L100 71H383L368 0H-14Z"  />
<glyph unicode="&#x17E;" horiz-adv-x="387" d="M226 556L175 700H219L267 594L359 700H408L296 556H226ZM-11 0L1 56L287 420H82L96 483H393L381 428L93 63H303L290 0H-11Z"  />
<glyph unicode="&#x192;" horiz-adv-x="398" d="M-30 -161L61 255H4V320H76L126 548Q140 608 173 642T263 677Q288 677 312 670T355 643L322 587Q314 598 302 602T276 607Q247 607 229 587T204 533L157 320H271V255H142L50 -161H-30Z"  />
<glyph unicode="&#x2C6;" horiz-adv-x="233" d="M257 556L209 661L117 556H69L181 700H251L302 556H257Z"  />
<glyph unicode="&#x2C7;" horiz-adv-x="233" d="M152 556L101 700H145L193 594L285 700H334L222 556H152Z"  />
<glyph unicode="&#x2DA;" horiz-adv-x="181" d="M167 544Q131 544 108 567T85 627Q85 647 93 665T115 697T147 719T185 727Q221 727 244 704T267 644Q267 624 259 606T238 574T206 552T167 544ZM170 582Q194 582 211 599T229 641Q229 662 216 675T183 689Q159 689 141 672T123 630Q123 610 136 596T170 582Z"  />
<glyph unicode="&#x2DC;" horiz-adv-x="270" d="M262 554Q236 554 225 568T207 601T193 633T167 648Q150 648 137 627T113 560H70Q82 617 107 655T175 694Q200 694 212 680T231 648T245 616T270 601Q287 601 300 621T325 688H368Q355 631 330 593T262 554Z"  />
<glyph unicode="&#x2013;" horiz-adv-x="527" d="M22 210L36 274H502L489 210H22Z"  />
<glyph unicode="&#x2014;" horiz-adv-x="737" d="M22 210L36 274H712L699 210H22Z"  />
<glyph unicode="&#x2018;" horiz-adv-x="229" d="M115 517Q115 540 124 563T149 608T185 647T228 677L258 646Q231 632 207 609T175 562H183Q200 562 212 550T224 518Q224 494 207 478T166 461Q145 461 130 475T115 517Z"  />
<glyph unicode="&#x2019;" horiz-adv-x="229" d="M254 620Q254 597 245 574T220 529T184 490T140 460L111 492Q138 506 162 529T194 576H186Q169 576 157 587T145 619Q145 643 162 660T203 677Q224 677 239 663T254 620Z"  />
<glyph unicode="&#x201A;" horiz-adv-x="229" d="M125 40Q125 17 116 -6T91 -51T55 -90T12 -120L-18 -88Q9 -74 33 -52T65 -4Q64 -5 62 -5T57 -5Q40 -5 28 7T16 39Q16 63 33 80T74 97Q95 97 110 83T125 40Z"  />
<glyph unicode="&#x201C;" horiz-adv-x="386" d="M275 517Q275 540 284 563T309 608T345 647T389 677L418 646Q391 632 367 609T335 562H343Q360 562 372 550T384 518Q384 494 367 478T327 461Q305 461 290 475T275 517ZM119 517Q119 540 128 563T153 608T189 647T233 677L262 646Q235 632 211 609T179 562H187Q204 562 216 550T228 518Q228 494 211 478T170 461Q149 461 134 475T119 517Z"  />
<glyph unicode="&#x201D;" horiz-adv-x="386" d="M254 620Q254 597 245 574T220 529T184 490T140 460L111 492Q138 506 162 529T194 576H186Q169 576 157 587T145 619Q145 643 162 660T203 677Q224 677 239 663T254 620ZM410 620Q410 597 401 574T377 529T341 490T297 460L267 492Q295 506 318 529T350 576H342Q325 576 313 587T301 619Q301 643 318 660T359 677Q380 677 395 663T410 620Z"  />
<glyph unicode="&#x201E;" horiz-adv-x="386" d="M125 40Q125 17 116 -6T91 -51T55 -90T12 -120L-18 -88Q9 -74 33 -52T65 -4Q63 -5 61 -5T57 -5Q40 -5 28 7T16 39Q16 63 33 80T74 97Q95 97 110 83T125 40ZM282 40Q282 17 273 -6T248 -51T212 -90T168 -120L138 -88Q166 -74 189 -52T221 -4Q219 -5 214 -5Q197 -5 185 7T172 39Q172 63 189 80T230 97Q251 97 266 83T282 40Z"  />
<glyph unicode="&#x2020;" horiz-adv-x="262" d="M215 536L172 327H125L176 536L86 532L95 574L184 571L203 677H250L222 571L312 574L303 532L215 536Z"  />
<glyph unicode="&#x2021;" horiz-adv-x="262" d="M303 532L215 536L167 322L257 326L248 284L160 287L139 180H92L121 287L31 284L40 326L128 322L176 536L86 532L95 574L183 571L203 677H250L222 571L312 574L303 532Z"  />
<glyph unicode="&#x2022;" horiz-adv-x="358" d="M287 253Q287 229 277 208T251 171T213 146T167 136Q125 136 98 163T71 232Q71 256 80 277T106 314T145 339T191 349Q232 349 259 322T287 253Z"  />
<glyph unicode="&#x2026;" horiz-adv-x="685" d="M65 -10Q44 -10 30 4T16 39Q16 63 33 80T75 97Q95 97 109 83T123 47Q123 23 106 7T65 -10ZM293 -10Q273 -10 259 4T244 39Q244 63 261 80T303 97Q323 97 337 83T352 47Q352 23 335 7T293 -10ZM521 -10Q501 -10 487 4T473 39Q473 63 490 80T531 97Q552 97 566 83T580 47Q580 23 563 7T521 -10Z"  />
<glyph unicode="&#x2030;" horiz-adv-x="962" d="M74 0L571 667H619L121 0H74ZM441 -12Q383 -12 349 24T315 116Q315 159 328 196T364 260T416 302T477 317Q535 317 569 281T604 189Q604 145 591 109T554 45T502 3T441 -12ZM443 37Q463 37 481 48T514 79T538 125T547 184Q547 223 528 245T475 268Q455 268 437 257T404 226T380 179T371 121Q371 81 391 59T443 37ZM212 348Q154 348 120 384T86 476Q86 519 99 556T135 620T187 662T248 677Q306 677 340 641T374 549Q374 505 361 469T325 405T273 363T212 348ZM214 397Q233 397 252 408T285 439T309 485T318 544Q318 584 298 606T246 628Q226 628 208 617T175 586T151 539T142 481Q142 441 162 419T214 397ZM752 -12Q723 -12 700 -3T661 24T635 65T626 116Q626 159 639 196T675 260T727 302T788 317Q846 317 880 281T915 189Q915 145 902 109T865 45T813 3T752 -12ZM754 37Q774 37 793 48T826 79T850 125T859 184Q859 223 839 245T786 268Q766 268 748 257T715 226T691 179T682 121Q682 81 702 59T754 37Z"  />
<glyph unicode="&#x2039;" horiz-adv-x="252" d="M114 63L29 243L194 420H264L95 239L178 63H114Z"  />
<glyph unicode="&#x203A;" horiz-adv-x="252" d="M139 420L224 240L59 63H-11L158 245L75 420H139Z"  />
<glyph unicode="&#x2044;" horiz-adv-x="127" d="M-142 0H-190L307 667H355L-142 0Z"  />
<glyph unicode="&#x20AC;" horiz-adv-x="549" d="M291 -12Q241 -12 201 4T131 51T85 127T69 229V238H22L33 288H72Q74 311 78 334T89 380H53L65 431H105Q124 482 152 527T215 605T294 658T385 678Q426 678 458 666T516 634T558 585T586 523L511 500Q476 607 379 607Q349 607 322 594T271 556T227 500T192 431H408L396 380H175Q168 357 163 334T155 288H376L364 238H152V229Q152 148 189 104T296 59Q332 59 366 80T432 140L493 102Q451 44 399 16T291 -12Z"  />
<glyph unicode="&#x2122;" horiz-adv-x="414" d="M396 447L436 629L331 447H323L298 629L258 447H230L278 667H321L341 509L429 667H472L424 447H396ZM185 641L142 447H114L157 641H105L110 667H242L237 641H185Z"  />
<glyph unicode="&#xF656;" horiz-adv-x="225" d="M57 0L127 321L53 258L25 294L152 400H203L115 0H57Z"  />
<glyph unicode="&#xF657;" horiz-adv-x="326" d="M-13 0L-3 47Q61 97 107 134T184 201T228 254T243 302Q243 331 223 344T176 358Q121 358 82 311L53 349Q78 376 109 391T179 406Q203 406 225 400T264 382T291 350T302 306Q302 276 286 248T241 189T169 124T76 48H247L237 0H-13Z"  />
<glyph unicode="&#xF658;" horiz-adv-x="326" d="M264 118Q264 97 255 75T229 34T187 5T130 -7Q82 -7 47 12T-5 65L37 97Q50 70 74 56T128 41Q147 41 162 48T186 68T201 95T206 127Q206 153 186 167T133 182Q125 182 118 182T105 181L115 229Q122 228 136 228T161 228Q196 228 219 248T242 303Q242 329 222 343T171 358Q121 358 80 315L53 350Q76 375 108 390T175 406Q229 406 264 382T300 310Q300 271 274 239T200 201Q228 194 246 172T264 118Z"  />
<glyph unicode="&#xF659;" horiz-adv-x="326" d="M222 101L200 0H142L164 101H-4L6 146L212 400H288L232 148H279L269 101H222ZM217 337L61 148H174L217 337Z"  />


</font>
</defs>
</svg>
